<svg xmlns="http://www.w3.org/2000/svg" viewBox="0 0 500 500"><g id="freepik--background-simple--inject-111"><path d="M467.33,299.94c-13.18,39.94-41.57,83.71-83.34,98-63.12,21.53-68.76,73.3-183.32,73a230.62,230.62,0,0,1-49.74-5.34,192,192,0,0,1-23.55-6.84C59.52,434.19,22.36,376,17.06,313.76c-7-81.82,48.69-123.1,85-147.41S179.7,51.66,292.32,51.12a224.21,224.21,0,0,1,51.12,5.46c38.24,8.78,77.59,30,101.23,62.21q2.65,3.63,5.11,7.44C481.66,175.83,485.29,245.5,467.33,299.94Z" style="fill:#029899"></path><path d="M467.33,299.94c-13.18,39.94-41.57,83.71-83.34,98-63.12,21.53-68.76,73.3-183.32,73a230.62,230.62,0,0,1-49.74-5.34,192,192,0,0,1-23.55-6.84C59.52,434.19,22.36,376,17.06,313.76c-7-81.82,48.69-123.1,85-147.41S179.7,51.66,292.32,51.12a224.21,224.21,0,0,1,51.12,5.46c38.24,8.78,77.59,30,101.23,62.21q2.65,3.63,5.11,7.44C481.66,175.83,485.29,245.5,467.33,299.94Z" style="fill:#fff;opacity:0.7000000000000001"></path></g><g id="freepik--Floor--inject-111"><path d="M482.69,453.63H20.94a.51.51,0,0,1-.5-.5.5.5,0,0,1,.5-.5H482.69a.5.5,0,0,1,.5.5A.51.51,0,0,1,482.69,453.63Z" style="fill:#263238"></path></g><g id="freepik--Plants--inject-111"><path d="M38.16,389.86c2.16.94,7.42.82,7.43.82s-1.14-3.44-1.24-3.65c-1.15-2.42-4.81-6.41-7.78-6a3.55,3.55,0,0,0-2.85,4.45C34.22,387.53,36.33,389.06,38.16,389.86Z" style="fill:#263238"></path><path d="M40,405.12c2.23.32,6.93-1,7.31-1.15a61.86,61.86,0,0,0,2.85,7.89c.64,1.49,1.34,3,2.06,4.46l-.88-1.26c-1.75-2-6.33-4.91-9.09-3.73a3.55,3.55,0,0,0-1.58,5c1,1.86,3.47,2.78,5.45,3.06s6-.79,7.1-1.09L54,420c1.36,2.71,2.73,5.41,4,8.1.45.95.85,1.9,1.26,2.84l-.76-1.09c-1.76-2-6.33-4.91-9.1-3.73a3.54,3.54,0,0,0-1.57,5c1,1.86,3.46,2.77,5.44,3.06s5.65-.68,6.91-1c.39,1,.78,2,1.11,2.93.22.67.47,1.3.64,2s.37,1.34.56,2c.31,1.28.63,2.6.9,3.86.19.87.36,1.71.53,2.55-.43-.95-1.32-2.78-1.41-2.93-1.42-2.27-5.51-5.81-8.42-5.07a3.56,3.56,0,0,0-2.32,4.75c.73,2,3,3.26,4.92,3.85,2.11.64,6.77.05,7.35,0,.28,1.39.54,2.75.76,4,.12.68.23,1.31.33,2H67c-.14-.74-.28-1.5-.44-2.29-.28-1.42-.6-2.93-1-4.47a39.82,39.82,0,0,0,4.1-1.93c1.54,1.66,5.47,3.61,6,3.86-.53,1.31-1.07,2.59-1.59,3.78l-.46,1.05h2l.15-.35c.55-1.34,1.11-2.78,1.67-4.26.56.12,5.18,1.06,7.33.57,2-.44,4.32-1.54,5.19-3.47a3.55,3.55,0,0,0-2-4.91c-2.84-1-7.18,2.27-8.77,4.43-.1.13-1,1.62-1.49,2.57.23-.6.45-1.19.68-1.82.45-1.23.87-2.48,1.32-3.82l.6-2c.21-.66.35-1.38.53-2.08.39-1.62.7-3.29,1-5,1.08.39,5,1.74,7,1.6s4.5-.87,5.66-2.65a3.56,3.56,0,0,0-1.2-5.15c-2.66-1.37-7.45,1.16-9.34,3.05-.12.12-1.33,1.63-2,2.47.16-1,.32-2,.45-3.05.37-3,.65-6,.94-9,.09-.93.19-1.85.29-2.77.38.15,4.95,1.85,7.2,1.69,2-.14,4.5-.87,5.65-2.65a3.55,3.55,0,0,0-1.19-5.15c-2.67-1.37-7.45,1.16-9.35,3-.14.15-1.88,2.32-2.29,2.89.21-2,.44-4,.75-6a63.45,63.45,0,0,1,1.73-7.92c.18.06,4.94,1.86,7.24,1.7,2-.14,4.5-.87,5.66-2.65a3.56,3.56,0,0,0-1.2-5.15c-2.66-1.37-7.44,1.16-9.34,3.05-.15.15-2,2.49-2.33,2.94,0-.15.07-.31.12-.46a45.36,45.36,0,0,1,3.14-7.5c.68-1.33,1.41-2.57,2.14-3.76.86.42,4.77,2.32,6.86,2.41s4.57-.38,5.91-2a3.56,3.56,0,0,0-.62-5.25c-2.5-1.66-7.53.33-9.63,2-.11.1-1.17,1.15-1.92,1.92l1-1.59c1.26-1.89,2.52-3.54,3.66-5,.65-.83,1.25-1.56,1.82-2.24,1.06,0,5.3-.14,7.16-1s3.88-2.44,4.32-4.51a3.56,3.56,0,0,0-3-4.38c-3-.32-6.53,3.77-7.62,6.22-.09.21-1.18,3.69-1.13,3.69h.06c-.56.64-1.16,1.33-1.8,2.1-1.16,1.44-2.47,3.07-3.77,4.94A63.32,63.32,0,0,0,89,395.11a46.48,46.48,0,0,0-3.34,7.52l0,.1c0-.88,0-3.34,0-3.53-.34-2.65-2.57-7.59-5.52-8.13a3.55,3.55,0,0,0-4.1,3.34c-.17,2.11,1.36,4.22,2.85,5.56,1.69,1.5,6.36,2.95,6.73,3.07a63.38,63.38,0,0,0-2,8.15c-.29,1.61-.53,3.23-.75,4.86,0-.76,0-1.44,0-1.53-.34-2.66-2.57-7.59-5.52-8.13a3.54,3.54,0,0,0-4.09,3.33C73,411.84,74.51,414,76,415.28s5.47,2.68,6.52,3c-.07.63-.16,1.25-.23,1.88-.36,3-.71,6-1.14,9-.15,1-.34,2.05-.52,3.06,0-.67,0-1.24,0-1.33-.34-2.65-2.57-7.59-5.52-8.13A3.55,3.55,0,0,0,71,426.07c-.18,2.11,1.35,4.22,2.85,5.56s5.08,2.54,6.33,2.94c-.22,1-.43,2.07-.69,3.07-.19.67-.33,1.33-.56,2s-.43,1.32-.64,2c-.45,1.24-.91,2.52-1.38,3.72-.32.83-.64,1.62-1,2.42.16-1,.44-3.05.44-3.22a13.81,13.81,0,0,0-1.85-6.71,3.41,3.41,0,0,0,0-.78,3.56,3.56,0,0,0-4.34-3c-2.9.78-4.74,5.87-4.87,8.54,0,.16.09,1.88.17,3-.14-.63-.28-1.25-.43-1.9-.31-1.28-.65-2.55-1-3.92l-.6-2c-.19-.67-.47-1.35-.7-2-.58-1.57-1.23-3.13-1.93-4.69,1.12-.26,5.09-1.28,6.69-2.5s3.27-3.21,3.25-5.33a3.55,3.55,0,0,0-3.83-3.64c-3,.33-5.57,5.08-6.11,7.7,0,.17-.21,2.09-.29,3.15-.43-.93-.85-1.86-1.31-2.79-1.33-2.69-2.77-5.36-4.18-8-.44-.82-.86-1.64-1.29-2.46.4-.09,5.15-1.19,6.94-2.57,1.58-1.21,3.27-3.21,3.25-5.32a3.55,3.55,0,0,0-3.83-3.64c-3,.32-5.57,5.08-6.12,7.7,0,.2-.29,3-.32,3.68-.94-1.81-1.86-3.62-2.69-5.44A63.71,63.71,0,0,1,48,403.94c.19,0,5.15-1.17,7-2.57,1.59-1.22,3.27-3.21,3.25-5.33a3.54,3.54,0,0,0-3.83-3.63c-3,.32-5.57,5.07-6.11,7.7-.05.2-.31,3.18-.32,3.73l-.16-.45a46.32,46.32,0,0,1-1.52-8c-.16-1.49-.24-2.92-.28-4.32.94-.11,5.26-.69,7-1.77s3.61-2.83,3.82-4.94a3.54,3.54,0,0,0-3.41-4c-3,0-6.09,4.43-6.92,7-.05.14-.35,1.6-.55,2.66,0-.63,0-1.28,0-1.88,0-2.27.15-4.35.29-6.19.09-1,.19-2,.29-2.87.87-.59,4.34-3,5.41-4.79s1.89-4.18,1.12-6.15a3.56,3.56,0,0,0-4.89-2c-2.67,1.38-3.37,6.75-2.93,9.39,0,.23,1,3.73,1.09,3.7l.06,0c-.12.85-.24,1.76-.34,2.75-.19,1.84-.38,3.92-.43,6.2a61.89,61.89,0,0,0,.18,7.36,46.52,46.52,0,0,0,1.36,8.12l0,.09c-.47-.74-1.86-2.77-2-2.91-1.75-2-6.33-4.91-9.09-3.74a3.54,3.54,0,0,0-1.57,5C35.56,403.91,38,404.83,40,405.12Z" style="fill:#263238"></path><path d="M91.43,391s1-3.5,1-3.73c.37-2.65-.47-8-3.18-9.3a3.55,3.55,0,0,0-4.83,2.14c-.72,2,.2,4.43,1.28,6.11C87,388.21,91.43,391,91.43,391Z" style="fill:#263238"></path><path d="M180.19,423.92a11.58,11.58,0,0,0,3.43.38s-.52-1.59-.57-1.68c-.53-1.12-2.22-3-3.59-2.78a1.64,1.64,0,0,0-1.31,2.06A3.4,3.4,0,0,0,180.19,423.92Z" style="fill:#263238"></path><path d="M181,431a11.54,11.54,0,0,0,3.38-.53,29.48,29.48,0,0,0,1.31,3.64c.3.69.62,1.37.95,2.06-.19-.29-.37-.55-.4-.58-.81-.94-2.92-2.27-4.2-1.73a1.63,1.63,0,0,0-.72,2.33,3.38,3.38,0,0,0,2.51,1.41,10.68,10.68,0,0,0,3.28-.5c.13.26.25.53.38.79.63,1.25,1.26,2.49,1.85,3.73.2.44.39.88.58,1.32-.18-.26-.33-.48-.36-.51-.8-.93-2.92-2.26-4.19-1.72a1.64,1.64,0,0,0-.73,2.33,3.43,3.43,0,0,0,2.51,1.41,10.44,10.44,0,0,0,3.19-.48c.18.46.36.91.52,1.36s.21.6.29.91.17.62.26.92c.14.59.29,1.2.41,1.78.09.41.17.79.25,1.18-.2-.44-.61-1.28-.65-1.35-.66-1.05-2.55-2.68-3.89-2.34a1.63,1.63,0,0,0-1.07,2.19,3.44,3.44,0,0,0,2.27,1.78,11.32,11.32,0,0,0,3.39,0c.13.64.25,1.27.36,1.86.05.32.1.61.15.91h.85c-.06-.34-.12-.69-.2-1.06-.13-.65-.28-1.35-.44-2.06a19.93,19.93,0,0,0,1.9-.89,12.39,12.39,0,0,0,2.76,1.78c-.25.61-.5,1.19-.74,1.75l-.21.48h.9c0-.06.05-.11.07-.16.25-.62.51-1.28.77-2a10.94,10.94,0,0,0,3.39.26,3.4,3.4,0,0,0,2.39-1.6,1.63,1.63,0,0,0-.9-2.26c-1.32-.45-3.32,1.05-4,2-.05.06-.45.75-.69,1.19.1-.28.21-.55.31-.84.21-.57.4-1.15.61-1.77.09-.3.19-.61.28-.92s.16-.63.24-1c.18-.75.33-1.52.46-2.3a10.93,10.93,0,0,0,3.21.74,3.43,3.43,0,0,0,2.61-1.22,1.64,1.64,0,0,0-.55-2.38c-1.23-.63-3.44.54-4.32,1.41-.05.05-.61.75-.91,1.14q.12-.71.21-1.41c.17-1.38.3-2.77.44-4.16,0-.43.08-.85.13-1.28a11.34,11.34,0,0,0,3.32.78,3.4,3.4,0,0,0,2.61-1.22,1.64,1.64,0,0,0-.55-2.38c-1.23-.63-3.44.54-4.31,1.41-.07.07-.87,1.07-1.06,1.34.09-.94.2-1.87.34-2.79a29.86,29.86,0,0,1,.8-3.65,11.55,11.55,0,0,0,3.34.78,3.39,3.39,0,0,0,2.61-1.22,1.64,1.64,0,0,0-.55-2.38c-1.23-.63-3.43.54-4.31,1.41-.07.07-.93,1.15-1.07,1.36,0-.07,0-.15.05-.22a21.64,21.64,0,0,1,1.45-3.46c.32-.61.65-1.18,1-1.73a11.24,11.24,0,0,0,3.16,1.11,3.39,3.39,0,0,0,2.73-.93,1.63,1.63,0,0,0-.28-2.42c-1.16-.77-3.48.15-4.45.92l-.89.89.47-.73c.58-.88,1.17-1.64,1.69-2.31.3-.38.58-.72.84-1a11.12,11.12,0,0,0,3.31-.47,3.44,3.44,0,0,0,2-2.08,1.64,1.64,0,0,0-1.37-2c-1.38-.15-3,1.74-3.52,2.87,0,.1-.55,1.7-.52,1.7h0c-.26.3-.54.62-.83,1-.54.66-1.14,1.42-1.74,2.28a26.48,26.48,0,0,0-1.81,2.88,20.35,20.35,0,0,0-1.54,3.47.06.06,0,0,0,0,0c0-.4,0-1.54,0-1.62-.16-1.23-1.18-3.51-2.55-3.76a1.64,1.64,0,0,0-1.89,1.54,3.43,3.43,0,0,0,1.32,2.57,11.72,11.72,0,0,0,3.11,1.42,27.9,27.9,0,0,0-.92,3.76c-.13.74-.24,1.49-.34,2.24,0-.35,0-.66,0-.7-.16-1.23-1.18-3.51-2.55-3.76a1.64,1.64,0,0,0-1.89,1.54,3.43,3.43,0,0,0,1.32,2.57,11.23,11.23,0,0,0,3,1.39c0,.29-.07.58-.11.87-.16,1.39-.32,2.77-.52,4.13-.07.48-.16.95-.24,1.41,0-.31,0-.57,0-.61-.16-1.23-1.19-3.5-2.55-3.75a1.63,1.63,0,0,0-1.89,1.54,3.41,3.41,0,0,0,1.32,2.56,10.12,10.12,0,0,0,2.92,1.36c-.1.48-.2,1-.32,1.42-.09.31-.15.61-.26.92s-.19.61-.29.91c-.21.57-.42,1.16-.64,1.72-.15.38-.29.75-.44,1.12.07-.48.2-1.41.2-1.49a6.38,6.38,0,0,0-.85-3.1c0-.12,0-.24,0-.36a1.64,1.64,0,0,0-2-1.39c-1.34.36-2.19,2.71-2.25,3.94,0,.07.05.87.08,1.37-.06-.29-.13-.58-.2-.87-.14-.6-.3-1.18-.46-1.81-.1-.31-.19-.61-.28-.92s-.22-.62-.32-.94c-.27-.72-.57-1.44-.89-2.16a10.5,10.5,0,0,0,3.08-1.16,3.43,3.43,0,0,0,1.51-2.46,1.64,1.64,0,0,0-1.77-1.67c-1.38.15-2.58,2.34-2.83,3.55,0,.08-.09,1-.13,1.45-.2-.43-.39-.86-.6-1.29-.62-1.24-1.28-2.47-1.93-3.71l-.6-1.13a11.36,11.36,0,0,0,3.2-1.19,3.43,3.43,0,0,0,1.51-2.46,1.64,1.64,0,0,0-1.77-1.67c-1.38.15-2.58,2.34-2.83,3.55,0,.09-.13,1.37-.14,1.7-.44-.84-.86-1.67-1.25-2.51a29,29,0,0,1-1.35-3.5,11.35,11.35,0,0,0,3.22-1.18,3.5,3.5,0,0,0,1.51-2.46,1.64,1.64,0,0,0-1.78-1.68c-1.37.15-2.57,2.34-2.82,3.55,0,.1-.14,1.48-.14,1.73a1.8,1.8,0,0,1-.08-.21,21.92,21.92,0,0,1-.7-3.69c-.07-.69-.11-1.35-.13-2a11.16,11.16,0,0,0,3.25-.82,3.44,3.44,0,0,0,1.77-2.28,1.64,1.64,0,0,0-1.58-1.86c-1.38,0-2.81,2-3.19,3.22,0,.07-.16.74-.26,1.23,0-.29,0-.59,0-.87,0-1.05.07-2,.13-2.85,0-.49.09-.92.14-1.33a10.94,10.94,0,0,0,2.49-2.21,3.4,3.4,0,0,0,.52-2.84,1.65,1.65,0,0,0-2.26-.93c-1.23.64-1.55,3.12-1.35,4.34,0,.1.49,1.72.51,1.7h0c-.05.39-.11.81-.16,1.27-.08.85-.17,1.81-.19,2.86a28.09,28.09,0,0,0,.08,3.39,21.45,21.45,0,0,0,.63,3.75s0,0,0,0c-.22-.34-.86-1.27-.91-1.34-.81-.94-2.93-2.27-4.2-1.73a1.64,1.64,0,0,0-.73,2.33A3.45,3.45,0,0,0,181,431Z" style="fill:#263238"></path><path d="M204.78,424.46s.45-1.62.46-1.72c.17-1.23-.22-3.69-1.47-4.3a1.65,1.65,0,0,0-2.23,1,3.44,3.44,0,0,0,.59,2.82A11.8,11.8,0,0,0,204.78,424.46Z" style="fill:#263238"></path></g><g id="freepik--Clouds--inject-111"><path d="M317.62,95.93h-152a.49.49,0,0,1-.49-.41.5.5,0,0,1,.3-.56c5.21-2.08,15.51-6.48,17.25-8.22a12.92,12.92,0,0,0,1.7-2.68c1.92-3.56,4.83-9,12.87-11.82,5.91-2.11,10.25-.77,13.13.11,2.61.81,3.47,1,4-.55,1.12-3.35,3.44-10.32,9.66-14a.49.49,0,0,1,.68.18.51.51,0,0,1-.18.69c-5.89,3.44-8.13,10.17-9.21,13.4-.85,2.54-2.78,2-5.22,1.2-2.92-.9-6.91-2.12-12.5-.13-7.68,2.74-10.48,7.93-12.33,11.36a13.22,13.22,0,0,1-1.87,2.91c-1.78,1.78-10.84,5.66-15.22,7.48h149.4a.5.5,0,0,1,.5.5A.5.5,0,0,1,317.62,95.93Z" style="fill:#263238"></path><path d="M343.6,95.93H325.19a.51.51,0,0,1-.5-.5.5.5,0,0,1,.5-.5h18c.4-2.6,2.25-16.84-3.75-24.17-3-3.61-7.52-3.17-12.36-2.69-5.7.56-11.59,1.14-14.2-5.72-.77-1.09-14.06-19.5-29.89-20.94-14.3-1.3-21.21,8.23-26.26,15.18-.72,1-1.41,1.95-2.07,2.8-3.13,4-5.66,2.65-9.16.76-3-1.6-6.65-3.6-12.43-3.6a.5.5,0,0,1-.5-.5.5.5,0,0,1,.5-.5A25.23,25.23,0,0,1,246,59.27c3.42,1.84,5.29,2.86,7.9-.49.66-.85,1.34-1.78,2.06-2.77,5.18-7.16,12.28-16.94,27.15-15.6,16.7,1.52,30.52,21.22,30.66,21.42a.37.37,0,0,1,0,.11c2.33,6.2,7.61,5.68,13.19,5.13,4.89-.48,9.94-1,13.23,3.05,6.89,8.41,4,24.71,3.89,25.4A.5.5,0,0,1,343.6,95.93Z" style="fill:#263238"></path><path d="M249,89.11h-.06a.5.5,0,0,1-.44-.55,12.24,12.24,0,0,1,3.67-7,.5.5,0,0,1,.71,0,.51.51,0,0,1,0,.71,11.51,11.51,0,0,0-3.36,6.4A.5.5,0,0,1,249,89.11Z" style="fill:#263238"></path><path d="M269.94,81a22.27,22.27,0,0,1-4.8-.73c-2.72-.62-5.53-1.25-8.45-.28a.5.5,0,0,1-.64-.32.51.51,0,0,1,.32-.63c3.19-1.06,6.14-.39,9,.25,3.37.77,6.29,1.43,9-.91,1.87-1.61,2.44-4.63,3.05-7.83,1-5.38,2.19-11.48,10.11-12,12.19-.76,22.66,9.55,23.1,10a.5.5,0,0,1,0,.71.51.51,0,0,1-.71,0c-.1-.1-10.59-10.43-22.33-9.7-7.14.45-8.18,5.9-9.18,11.17-.65,3.38-1.26,6.57-3.39,8.4A7.44,7.44,0,0,1,269.94,81Z" style="fill:#263238"></path><path d="M133.4,130.34H34.12a.49.49,0,0,1-.49-.41.5.5,0,0,1,.3-.56C36.66,128.28,44,125.2,45.14,124a8,8,0,0,0,1.08-1.71c1.27-2.35,3.2-5.91,8.51-7.8a12.58,12.58,0,0,1,8.69.07c1.83.56,2.12.53,2.38-.26.74-2.2,2.27-6.8,6.39-9.21a.51.51,0,0,1,.68.18.51.51,0,0,1-.18.69c-3.79,2.21-5.24,6.57-5.94,8.66-.61,1.82-2.07,1.37-3.63.89a11.56,11.56,0,0,0-8.06-.08,13.78,13.78,0,0,0-8,7.34,8.46,8.46,0,0,1-1.25,1.94c-1.09,1.09-6.12,3.3-9.19,4.59H133.4a.5.5,0,0,1,.5.5A.51.51,0,0,1,133.4,130.34Z" style="fill:#263238"></path><path d="M150.37,130.34h-12a.51.51,0,0,1-.5-.5.5.5,0,0,1,.5-.5h11.6c.3-2,1.34-10.9-2.43-15.51-1.87-2.29-4.81-2-7.93-1.69-3.78.37-7.69.75-9.44-3.83-.61-.86-9.2-12.67-19.39-13.59-9.24-.84-13.73,5.34-17,9.85-.47.65-.92,1.27-1.36,1.83-2.13,2.74-3.93,1.77-6.2.54a15.67,15.67,0,0,0-8-2.33.5.5,0,0,1-.5-.5.5.5,0,0,1,.5-.5,16.69,16.69,0,0,1,8.51,2.45c2.29,1.24,3.33,1.8,4.94-.27.43-.55.87-1.16,1.34-1.81,3.41-4.7,8.08-11.15,17.9-10.26,11,1,19.79,13.53,20.15,14.07a.24.24,0,0,1,.06.11c1.47,3.92,4.7,3.61,8.44,3.24,3.24-.32,6.58-.65,8.79,2.06,4.55,5.55,2.66,16.27,2.58,16.73A.5.5,0,0,1,150.37,130.34Z" style="fill:#263238"></path><path d="M88.54,125.88h-.06a.5.5,0,0,1-.44-.55,8.17,8.17,0,0,1,2.45-4.69.5.5,0,0,1,.71,0,.51.51,0,0,1,0,.71A7.3,7.3,0,0,0,89,125.44.49.49,0,0,1,88.54,125.88Z" style="fill:#263238"></path><path d="M102.23,120.59a14.4,14.4,0,0,1-3.16-.48,9.8,9.8,0,0,0-5.43-.19.5.5,0,1,1-.32-.94,10.73,10.73,0,0,1,6,.15c2.16.49,4,.92,5.74-.56,1.18-1,1.55-2.95,1.94-5,.68-3.58,1.45-7.63,6.76-8,8.06-.51,14.94,6.29,15.23,6.58a.5.5,0,1,1-.71.71c-.07-.07-6.87-6.76-14.45-6.29-4.54.29-5.17,3.62-5.85,7.16-.42,2.23-.83,4.35-2.27,5.58A5.07,5.07,0,0,1,102.23,120.59Z" style="fill:#263238"></path><path d="M317.09,162.85H247.86a.5.5,0,0,1-.19-1c2.63-1,7.07-3,7.77-3.68a6.25,6.25,0,0,0,.73-1.16,10.31,10.31,0,0,1,6-5.51,8.89,8.89,0,0,1,6.15,0c1.32.41,1.34.32,1.48-.08.52-1.55,1.6-4.8,4.52-6.5a.5.5,0,1,1,.5.86c-2.59,1.52-3.59,4.52-4.07,6s-1.67,1-2.72.72a7.92,7.92,0,0,0-5.52-.06,9.45,9.45,0,0,0-5.47,5,6.31,6.31,0,0,1-.9,1.39c-.7.7-3.63,2-5.78,2.95h66.72a.5.5,0,0,1,.5.5A.5.5,0,0,1,317.09,162.85Z" style="fill:#263238"></path><path d="M328.93,162.85h-8.39a.5.5,0,0,1-.5-.5.5.5,0,0,1,.5-.5h8c.22-1.61.84-7.49-1.69-10.57-1.25-1.53-3.26-1.34-5.39-1.13-2.56.25-5.47.54-6.74-2.75-.5-.69-6.41-8.76-13.4-9.39-6.37-.59-9.45,3.69-11.71,6.8-.34.46-.65.89-1,1.28-1.56,2-2.93,1.28-4.51.42a10.82,10.82,0,0,0-5.54-1.6.5.5,0,0,1-.5-.5.5.5,0,0,1,.5-.5,11.74,11.74,0,0,1,6,1.72c1.56.85,2.21,1.19,3.26-.15.29-.38.6-.81.93-1.26,2.4-3.31,5.69-7.84,12.61-7.21,7.74.7,13.91,9.5,14.17,9.87a.54.54,0,0,1,0,.11c1,2.63,3.19,2.42,5.73,2.17,2.19-.22,4.67-.46,6.27,1.48,3.21,3.93,1.89,11.48,1.83,11.79A.51.51,0,0,1,328.93,162.85Z" style="fill:#263238"></path><path d="M285.81,159.74h-.06a.5.5,0,0,1-.44-.55,5.88,5.88,0,0,1,1.76-3.37.49.49,0,0,1,.7,0,.5.5,0,0,1,0,.71,4.88,4.88,0,0,0-1.45,2.75A.5.5,0,0,1,285.81,159.74Z" style="fill:#263238"></path><path d="M295.36,156.05a10.12,10.12,0,0,1-2.24-.34,6.86,6.86,0,0,0-3.71-.14.49.49,0,1,1-.31-.94,7.58,7.58,0,0,1,4.24.1c1.52.35,2.73.62,3.87-.35.78-.67,1-2,1.3-3.41.46-2.43,1-5.44,4.86-5.68,5.68-.37,10.53,4.42,10.73,4.63a.48.48,0,0,1,0,.7.5.5,0,0,1-.71,0s-4.74-4.67-10-4.34c-3,.19-3.48,2.46-3.94,4.86-.3,1.59-.58,3.09-1.63,4A3.68,3.68,0,0,1,295.36,156.05Z" style="fill:#263238"></path></g><g id="freepik--Number--inject-111"><path d="M103.59,362.9V321.2H52.88V296.47L97.1,193.15h33.74v105h17.39V321.2H130.84v41.7Zm-26.4-64.76h26.4V224.37Z" style="fill:#263238"></path><path d="M130.84,363.4H103.59a.5.5,0,0,1-.5-.5V321.7H52.88a.5.5,0,0,1-.5-.5V296.47a.45.45,0,0,1,0-.2L96.64,193a.51.51,0,0,1,.46-.3h33.74a.5.5,0,0,1,.5.5V297.64h16.89a.5.5,0,0,1,.5.5V321.2a.5.5,0,0,1-.5.5H131.34v41.2A.5.5,0,0,1,130.84,363.4Zm-26.75-1h26.25V321.2a.5.5,0,0,1,.5-.5h16.89V298.64H130.84a.5.5,0,0,1-.5-.5V193.65H97.43L53.38,296.57V320.7h50.21a.5.5,0,0,1,.5.5Zm-.5-63.76H77.19a.47.47,0,0,1-.41-.21.46.46,0,0,1-.06-.45l26.4-73.77a.51.51,0,0,1,.56-.33.49.49,0,0,1,.41.49v73.77A.5.5,0,0,1,103.59,298.64Zm-25.69-1h25.19V227.25Z" style="fill:#263238"></path><path d="M207.75,365.42q-14.88,0-24.62-6.29a38.92,38.92,0,0,1-14.67-17.39q-4.94-11.12-4.93-25.57V240.93q0-14.88,4.72-26.09a37.58,37.58,0,0,1,14.46-17.5q9.75-6.28,25-6.29t25.05,6.29a37.58,37.58,0,0,1,14.46,17.5Q252,226,252,240.93v75.24q0,14.46-4.92,25.57a39,39,0,0,1-14.67,17.39Q222.63,365.42,207.75,365.42Zm0-24.94q6.5,0,9.64-4a21.76,21.76,0,0,0,4.2-9.64,61.78,61.78,0,0,0,1-11.11v-74.4a71.74,71.74,0,0,0-.94-11.63A20.88,20.88,0,0,0,217.6,220q-3.14-4-9.85-4t-9.85,4a21,21,0,0,0-4.08,9.75,71.75,71.75,0,0,0-.95,11.63v74.4A55.57,55.57,0,0,0,194,326.86a22.56,22.56,0,0,0,4.29,9.64Q201.47,340.48,207.75,340.48Z" style="fill:#263238"></path><path d="M207.75,365.92c-10,0-18.34-2.14-24.89-6.37A39.54,39.54,0,0,1,168,341.94c-3.3-7.43-5-16.1-5-25.77V240.93c0-9.94,1.6-18.78,4.76-26.29a38.31,38.31,0,0,1,14.65-17.72c6.55-4.23,15.06-6.37,25.31-6.37s18.77,2.14,25.32,6.37a38.26,38.26,0,0,1,14.65,17.72c3.16,7.51,4.75,16.35,4.75,26.29v75.24a63.45,63.45,0,0,1-5,25.77,39.61,39.61,0,0,1-14.86,17.61C226.1,363.78,217.72,365.92,207.75,365.92Zm0-174.37c-10.05,0-18.39,2.09-24.77,6.21A37.27,37.27,0,0,0,168.71,215c-3.1,7.38-4.68,16.1-4.68,25.9v75.24a62.25,62.25,0,0,0,4.89,25.36,38.56,38.56,0,0,0,14.48,17.18c6.39,4.12,14.58,6.21,24.35,6.21s18-2.09,24.36-6.21a38.68,38.68,0,0,0,14.48-17.18,62.32,62.32,0,0,0,4.88-25.36V240.93c0-9.81-1.57-18.52-4.67-25.9a37.27,37.27,0,0,0-14.27-17.27C226.14,193.64,217.81,191.55,207.75,191.55Zm0,149.43c-4.33,0-7.63-1.4-9.82-4.17a23,23,0,0,1-4.39-9.85,55.76,55.76,0,0,1-1.17-11.21v-74.4a72.73,72.73,0,0,1,.95-11.71,21.46,21.46,0,0,1,4.19-10c2.19-2.77,5.63-4.17,10.24-4.17s8.06,1.4,10.25,4.17a21.45,21.45,0,0,1,4.18,10,72.73,72.73,0,0,1,.95,11.71v74.4a61.88,61.88,0,0,1-1,11.2,22.36,22.36,0,0,1-4.29,9.86C215.6,339.58,212.23,341,207.75,341Zm0-124.49c-4.28,0-7.47,1.28-9.45,3.79a20.4,20.4,0,0,0-4,9.52,71.89,71.89,0,0,0-.94,11.55v74.4a55.15,55.15,0,0,0,1.15,11,22.17,22.17,0,0,0,4.19,9.43c2,2.51,5,3.79,9,3.79s7.27-1.28,9.25-3.79a21.21,21.21,0,0,0,4.09-9.42,60.81,60.81,0,0,0,1-11v-74.4a72,72,0,0,0-.93-11.55,20.5,20.5,0,0,0-4-9.52C215.22,217.77,212,216.49,207.75,216.49Z" style="fill:#263238"></path><path d="M321.13,362.9V321.2H270.42V296.47l44.22-103.32h33.74v105h17.39V321.2H348.38v41.7Zm-26.4-64.76h26.4V224.37Z" style="fill:#263238"></path><path d="M348.38,363.4H321.13a.5.5,0,0,1-.5-.5V321.7H270.42a.5.5,0,0,1-.5-.5V296.47a.45.45,0,0,1,0-.2L314.18,193a.51.51,0,0,1,.46-.3h33.74a.5.5,0,0,1,.5.5V297.64h16.89a.5.5,0,0,1,.5.5V321.2a.5.5,0,0,1-.5.5H348.88v41.2A.5.5,0,0,1,348.38,363.4Zm-26.75-1h26.25V321.2a.5.5,0,0,1,.5-.5h16.89V298.64H348.38a.5.5,0,0,1-.5-.5V193.65H315L270.92,296.57V320.7h50.21a.5.5,0,0,1,.5.5Zm-.5-63.76h-26.4a.47.47,0,0,1-.41-.21.46.46,0,0,1-.06-.45l26.4-73.77a.51.51,0,0,1,.56-.33.49.49,0,0,1,.41.49v73.77A.5.5,0,0,1,321.13,298.64Zm-25.69-1h25.19V227.25Z" style="fill:#263238"></path><path d="M116.23,362.9V321.2H65.51V296.47l44.22-103.32h33.75v105h17.39V321.2H143.48v41.7ZM89.82,298.14h26.41V224.37Z" style="fill:#fff"></path><path d="M143.48,363.4H116.23a.5.5,0,0,1-.5-.5V321.7H65.51a.51.51,0,0,1-.5-.5V296.47a.65.65,0,0,1,0-.2L109.27,193a.51.51,0,0,1,.46-.3h33.75a.5.5,0,0,1,.5.5V297.64h16.89a.5.5,0,0,1,.5.5V321.2a.5.5,0,0,1-.5.5H144v41.2A.5.5,0,0,1,143.48,363.4Zm-26.75-1H143V321.2a.5.5,0,0,1,.5-.5h16.89V298.64H143.48a.5.5,0,0,1-.5-.5V193.65H110.06L66,296.57V320.7h50.22a.5.5,0,0,1,.5.5Zm-.5-63.76H89.82a.46.46,0,0,1-.4-.21.49.49,0,0,1-.07-.45l26.41-73.77a.51.51,0,0,1,.56-.33.49.49,0,0,1,.41.49v73.77A.5.5,0,0,1,116.23,298.64Zm-25.7-1h25.2V227.25Z" style="fill:#263238"></path><path d="M220.39,365.42q-14.88,0-24.63-6.29a39,39,0,0,1-14.67-17.39q-4.92-11.12-4.92-25.57V240.93q0-14.88,4.71-26.09a37.66,37.66,0,0,1,14.47-17.5q9.74-6.28,25-6.29t25,6.29a37.66,37.66,0,0,1,14.47,17.5q4.71,11.21,4.71,26.09v75.24q0,14.46-4.92,25.57A39,39,0,0,1,245,359.13Q235.27,365.42,220.39,365.42Zm0-24.94q6.5,0,9.64-4a21.63,21.63,0,0,0,4.19-9.64,60.91,60.91,0,0,0,1.05-11.11v-74.4a71.74,71.74,0,0,0-.94-11.63,20.88,20.88,0,0,0-4.09-9.75q-3.15-4-9.85-4t-9.85,4a20.88,20.88,0,0,0-4.09,9.75,71.74,71.74,0,0,0-.94,11.63v74.4a55.54,55.54,0,0,0,1.15,11.11,22.57,22.57,0,0,0,4.3,9.64Q214.11,340.48,220.39,340.48Z" style="fill:#fff"></path><path d="M220.39,365.92c-10,0-18.35-2.14-24.9-6.37a39.58,39.58,0,0,1-14.85-17.61c-3.3-7.43-5-16.1-5-25.77V240.93c0-9.94,1.6-18.78,4.75-26.29a38.31,38.31,0,0,1,14.65-17.72c6.55-4.23,15.07-6.37,25.32-6.37s18.77,2.14,25.32,6.37a38.31,38.31,0,0,1,14.65,17.72c3.15,7.51,4.75,16.35,4.75,26.29v75.24a63.29,63.29,0,0,1-5,25.77,39.53,39.53,0,0,1-14.85,17.61C238.74,363.78,230.36,365.92,220.39,365.92Zm0-174.37c-10,0-18.39,2.09-24.77,6.21A37.27,37.27,0,0,0,181.35,215c-3.11,7.38-4.68,16.09-4.68,25.9v75.24c0,9.53,1.64,18.06,4.88,25.36A38.58,38.58,0,0,0,196,358.71c6.38,4.12,14.58,6.21,24.35,6.21s18-2.09,24.35-6.21a38.64,38.64,0,0,0,14.49-17.18,62.32,62.32,0,0,0,4.88-25.36V240.93c0-9.81-1.57-18.52-4.67-25.9a37.35,37.35,0,0,0-14.28-17.27C238.78,193.64,230.44,191.55,220.39,191.55Zm0,149.43c-4.33,0-7.64-1.4-9.82-4.17a23.13,23.13,0,0,1-4.4-9.85A56.47,56.47,0,0,1,205,315.75v-74.4a72.73,72.73,0,0,1,1-11.71,21.46,21.46,0,0,1,4.19-10c2.19-2.77,5.63-4.17,10.24-4.17s8.06,1.4,10.24,4.17a21.46,21.46,0,0,1,4.19,10,72.73,72.73,0,0,1,1,11.71v74.4a61.91,61.91,0,0,1-1.06,11.2,22.13,22.13,0,0,1-4.29,9.86C228.24,339.58,224.86,341,220.39,341Zm0-124.49c-4.29,0-7.47,1.28-9.46,3.79a20.49,20.49,0,0,0-4,9.52,71.89,71.89,0,0,0-.94,11.55v74.4a55.2,55.2,0,0,0,1.14,11,22.18,22.18,0,0,0,4.2,9.43c2,2.51,5,3.79,9,3.79s7.26-1.28,9.25-3.79a21.21,21.21,0,0,0,4.09-9.42,60.81,60.81,0,0,0,1-11v-74.4a70.77,70.77,0,0,0-.94-11.55,20.49,20.49,0,0,0-4-9.52C227.86,217.77,224.68,216.49,220.39,216.49Z" style="fill:#263238"></path><path d="M333.77,362.9V321.2H283.05V296.47l44.22-103.32H361v105h17.39V321.2H361v41.7Zm-26.41-64.76h26.41V224.37Z" style="fill:#fff"></path><path d="M361,363.4H333.77a.5.5,0,0,1-.5-.5V321.7H283.05a.51.51,0,0,1-.5-.5V296.47a.65.65,0,0,1,0-.2L326.81,193a.51.51,0,0,1,.46-.3H361a.5.5,0,0,1,.5.5V297.64h16.89a.5.5,0,0,1,.5.5V321.2a.5.5,0,0,1-.5.5H361.52v41.2A.5.5,0,0,1,361,363.4Zm-26.75-1h26.25V321.2a.5.5,0,0,1,.5-.5h16.89V298.64H361a.5.5,0,0,1-.5-.5V193.65H327.6L283.55,296.57V320.7h50.22a.5.5,0,0,1,.5.5Zm-.5-63.76H307.36a.49.49,0,0,1-.41-.21.51.51,0,0,1-.06-.45l26.41-73.77a.5.5,0,0,1,.56-.33.49.49,0,0,1,.41.49v73.77A.5.5,0,0,1,333.77,298.64Zm-25.7-1h25.2V227.25Z" style="fill:#263238"></path></g><g id="freepik--Text--inject-111"><path d="M108.52,184.94a10.57,10.57,0,0,1-5.63-1.31,7.37,7.37,0,0,1-3-3.78A17,17,0,0,1,99,174V161.57a16.49,16.49,0,0,1,.9-5.77,7.14,7.14,0,0,1,3-3.67,13.15,13.15,0,0,1,11.32,0,7.24,7.24,0,0,1,3,3.67,16.24,16.24,0,0,1,.92,5.77v12.49a16.43,16.43,0,0,1-.92,5.77,7.55,7.55,0,0,1-3,3.78A10.46,10.46,0,0,1,108.52,184.94Zm0-4.47a3.24,3.24,0,0,0,2.24-.66,3.27,3.27,0,0,0,1-1.81,11.58,11.58,0,0,0,.25-2.5V160.18a11.29,11.29,0,0,0-.25-2.51,3.1,3.1,0,0,0-1-1.74,3.29,3.29,0,0,0-2.24-.64,3.24,3.24,0,0,0-2.18.64,3.07,3.07,0,0,0-1,1.74,11.29,11.29,0,0,0-.25,2.51V175.5a13,13,0,0,0,.23,2.5,3.15,3.15,0,0,0,1,1.81A3.24,3.24,0,0,0,108.52,180.47Z" style="fill:#263238"></path><path d="M131.64,184.94a10.53,10.53,0,0,1-5.62-1.31,7.27,7.27,0,0,1-3-3.78,16.76,16.76,0,0,1-.91-5.83V161.57a16.25,16.25,0,0,1,.91-5.77,7,7,0,0,1,3-3.67,13.13,13.13,0,0,1,11.31,0,7.24,7.24,0,0,1,3,3.67,16.24,16.24,0,0,1,.92,5.77v12.49a16.43,16.43,0,0,1-.92,5.77,7.55,7.55,0,0,1-3,3.78A10.44,10.44,0,0,1,131.64,184.94Zm0-4.47a3.24,3.24,0,0,0,2.24-.66,3.35,3.35,0,0,0,1-1.81,12.26,12.26,0,0,0,.24-2.5V160.18a12,12,0,0,0-.24-2.51,3.17,3.17,0,0,0-1-1.74,3.29,3.29,0,0,0-2.24-.64,3.2,3.2,0,0,0-2.17.64,3,3,0,0,0-1,1.74,11.91,11.91,0,0,0-.25,2.51V175.5a13,13,0,0,0,.23,2.5,3.15,3.15,0,0,0,1,1.81A3.27,3.27,0,0,0,131.64,180.47Z" style="fill:#263238"></path><path d="M145.73,184.49V151.22h9.77a9.46,9.46,0,0,1,4.87,1.11,6.58,6.58,0,0,1,2.75,3.23,13.21,13.21,0,0,1,.88,5.11,10.76,10.76,0,0,1-1.1,5.24,6.66,6.66,0,0,1-3.1,2.89,11.37,11.37,0,0,1-4.71.9h-3.28v14.79Zm6.08-19.06h2.3a5.62,5.62,0,0,0,2.56-.47,2.53,2.53,0,0,0,1.28-1.52,9.22,9.22,0,0,0,.35-2.81,13,13,0,0,0-.27-2.94,2.51,2.51,0,0,0-1.15-1.66,5.47,5.47,0,0,0-2.77-.54h-2.3Z" style="fill:#263238"></path><path d="M175.59,184.94a9.83,9.83,0,0,1-5-1.17,7.29,7.29,0,0,1-3-3.43,14.53,14.53,0,0,1-1.15-5.54l5.21-1a15.82,15.82,0,0,0,.48,3.41,4.84,4.84,0,0,0,1.19,2.28,2.85,2.85,0,0,0,2.11.8,2.37,2.37,0,0,0,2.1-.88,3.84,3.84,0,0,0,.61-2.24,6.09,6.09,0,0,0-1-3.57,15.37,15.37,0,0,0-2.63-2.8l-4.19-3.69a12.57,12.57,0,0,1-2.81-3.39,9.34,9.34,0,0,1-1-4.62,7.86,7.86,0,0,1,2.3-6.08,8.89,8.89,0,0,1,6.28-2.14,9.3,9.3,0,0,1,3.9.72,6.33,6.33,0,0,1,2.49,2,9.13,9.13,0,0,1,1.37,2.9,16.94,16.94,0,0,1,.58,3.43l-5.18.9a18,18,0,0,0-.34-2.79,3.94,3.94,0,0,0-1-1.93,2.64,2.64,0,0,0-2-.7,2.56,2.56,0,0,0-2.08.88,3.44,3.44,0,0,0-.71,2.2,5.08,5.08,0,0,0,.69,2.77,10.66,10.66,0,0,0,2,2.24l4.14,3.66a17.5,17.5,0,0,1,3.52,4,10.36,10.36,0,0,1,1.45,5.61,8.5,8.5,0,0,1-1,4.23,7.44,7.44,0,0,1-2.92,2.89A8.78,8.78,0,0,1,175.59,184.94Z" style="fill:#263238"></path><path d="M186.63,184.49v-5.42h5.43v5.42Zm1.73-7.8-1.68-25.43h5.58l-2,25.43Z" style="fill:#263238"></path></g></svg>